<?xml version="1.0" encoding="UTF-8" standalone="no"?>
<!-- Creator: CorelDRAW X7 -->

<svg
   xmlns:dc="http://purl.org/dc/elements/1.1/"
   xmlns:cc="http://creativecommons.org/ns#"
   xmlns:rdf="http://www.w3.org/1999/02/22-rdf-syntax-ns#"
   xmlns:svg="http://www.w3.org/2000/svg"
   xmlns="http://www.w3.org/2000/svg"
   xmlns:sodipodi="http://sodipodi.sourceforge.net/DTD/sodipodi-0.dtd"
   xmlns:inkscape="http://www.inkscape.org/namespaces/inkscape"
   xml:space="preserve"
   width="83.852318in"
   height="77.231323in"
   version="1.1"
   style="clip-rule:evenodd;fill-rule:evenodd;image-rendering:optimizeQuality;shape-rendering:geometricPrecision;text-rendering:geometricPrecision"
   viewBox="0 0 83852.321 77231.323"
   id="svg2"
   inkscape:version="0.91 r13725"
   sodipodi:docname="neurovias.svg"><metadata
     id="metadata132"><rdf:RDF><cc:Work
         rdf:about=""><dc:format>image/svg+xml</dc:format><dc:type
           rdf:resource="http://purl.org/dc/dcmitype/StillImage" /><dc:title></dc:title></cc:Work></rdf:RDF></metadata><sodipodi:namedview
     pagecolor="#ffffff"
     bordercolor="#666666"
     borderopacity="1"
     objecttolerance="10"
     gridtolerance="10"
     guidetolerance="10"
     inkscape:pageopacity="0"
     inkscape:pageshadow="2"
     inkscape:window-width="1615"
     inkscape:window-height="1026"
     id="namedview130"
     showgrid="false"
     fit-margin-bottom="20"
     fit-margin-left="20"
     fit-margin-top="20"
     fit-margin-right="20"
     inkscape:zoom="0.05959596"
     inkscape:cx="2724.8856"
     inkscape:cy="4661.3187"
     inkscape:window-x="65"
     inkscape:window-y="24"
     inkscape:window-maximized="1"
     inkscape:current-layer="svg2" /><defs
     id="defs4"><style
       type="text/css"
       id="style6"><![CDATA[
    .str0 {stroke:#9D98CA;stroke-width:23.6102;stroke-linecap:round}
    .fil0 {fill:none}
   ]]></style></defs><g
     id="Camada_x0020_1"
     transform="matrix(24.407519,0,0,24.407519,-90412.247,-50828.715)"
     style="stroke:#292929;stroke-width:27.7678566;stroke-miterlimit:4;stroke-dasharray:none;stroke-opacity:1"><metadata
       id="CorelCorpID_0Corel-Layer" /><path
       class="fil0 str0"
       d="m 5664,3308 c -7,-15 -22,-36 -24,-52 -4,-36 0,-59 25,-89 45,-53 66,-116 58,-185 -1,-5 -7,-49 -10,-50"
       id="path10"
       inkscape:connector-curvature="0"
       style="fill:none;stroke:#292929;stroke-width:27.7678566;stroke-linecap:round;stroke-miterlimit:4;stroke-dasharray:none;stroke-opacity:1" /><path
       class="fil0 str0"
       d="m 5726,3246 c -21,-42 -11,-88 24,-120 48,-44 4,-127 9,-132"
       id="path12"
       inkscape:connector-curvature="0"
       style="fill:none;stroke:#292929;stroke-width:27.7678566;stroke-linecap:round;stroke-miterlimit:4;stroke-dasharray:none;stroke-opacity:1" /><path
       class="fil0 str0"
       d="m 5768,3225 c -4,-51 33,-78 63,-110 43,-45 16,-91 6,-97"
       id="path14"
       inkscape:connector-curvature="0"
       style="fill:none;stroke:#292929;stroke-width:27.7678566;stroke-linecap:round;stroke-miterlimit:4;stroke-dasharray:none;stroke-opacity:1" /><path
       class="fil0 str0"
       d="m 5768,3225 c 29,-14 34,-14 64,-31 26,-15 72,-65 79,-93 1,-5 1,-6 -3,-8"
       id="path16"
       inkscape:connector-curvature="0"
       style="fill:none;stroke:#292929;stroke-width:27.7678566;stroke-linecap:round;stroke-miterlimit:4;stroke-dasharray:none;stroke-opacity:1" /><path
       class="fil0 str0"
       d="m 5717,3318 c 48,-11 88,8 125,-53 21,-35 67,-58 110,-41 17,7 21,9 36,22 2,2 7,4 9,5"
       id="path18"
       inkscape:connector-curvature="0"
       style="fill:none;stroke:#292929;stroke-width:27.7678566;stroke-linecap:round;stroke-miterlimit:4;stroke-dasharray:none;stroke-opacity:1" /><path
       class="fil0 str0"
       d="m 5708,3390 c 60,2 85,-17 136,-44 27,-14 33,-37 85,-44 37,-6 78,13 101,41 3,4 1,2 4,4"
       id="path20"
       inkscape:connector-curvature="0"
       style="fill:none;stroke:#292929;stroke-width:27.7678566;stroke-linecap:round;stroke-miterlimit:4;stroke-dasharray:none;stroke-opacity:1" /><path
       class="fil0 str0"
       d="m 5778,3464 c 33,-41 35,-52 52,-96 2,-6 4,-10 1,-15"
       id="path22"
       inkscape:connector-curvature="0"
       style="fill:none;stroke:#292929;stroke-width:27.7678566;stroke-linecap:round;stroke-miterlimit:4;stroke-dasharray:none;stroke-opacity:1" /><path
       class="fil0 str0"
       d="m 5697,3457 c 52,48 59,65 132,50 76,-16 44,-133 166,-71 6,3 20,14 22,14"
       id="path24"
       inkscape:connector-curvature="0"
       style="fill:none;stroke:#292929;stroke-width:27.7678566;stroke-linecap:round;stroke-miterlimit:4;stroke-dasharray:none;stroke-opacity:1" /><path
       class="fil0 str0"
       d="m 5985,3505 c -31,-13 -32,-4 -61,8 -55,22 -63,122 -125,81 -3,-2 -51,-20 -61,-18 -37,8 -32,44 -74,3 -4,-4 -13,-14 -16,-19"
       id="path26"
       inkscape:connector-curvature="0"
       style="fill:none;stroke:#292929;stroke-width:27.7678566;stroke-linecap:round;stroke-miterlimit:4;stroke-dasharray:none;stroke-opacity:1" /><path
       class="fil0 str0"
       d="m 5664,3529 c 48,11 55,-2 88,-25"
       id="path28"
       inkscape:connector-curvature="0"
       style="fill:none;stroke:#292929;stroke-width:27.7678566;stroke-linecap:round;stroke-miterlimit:4;stroke-dasharray:none;stroke-opacity:1" /><path
       class="fil0 str0"
       d="m 5890,3547 c 18,35 46,80 91,80"
       id="path30"
       inkscape:connector-curvature="0"
       style="fill:none;stroke:#292929;stroke-width:27.7678566;stroke-linecap:round;stroke-miterlimit:4;stroke-dasharray:none;stroke-opacity:1" /><path
       class="fil0 str0"
       d="m 5911,3680 c -14,-15 -40,-42 -66,-34 -8,3 -30,24 -37,32"
       id="path32"
       inkscape:connector-curvature="0"
       style="fill:none;stroke:#292929;stroke-width:27.7678566;stroke-linecap:round;stroke-miterlimit:4;stroke-dasharray:none;stroke-opacity:1" /><path
       class="fil0 str0"
       d="m 5881,3740 c -38,-17 -37,-27 -64,-52 -19,-16 -10,-35 -57,-28 -36,5 -23,14 -57,-16 -7,-6 -11,-5 -20,-5 -22,-3 -47,30 -70,30"
       id="path34"
       inkscape:connector-curvature="0"
       style="fill:none;stroke:#292929;stroke-width:27.7678566;stroke-linecap:round;stroke-miterlimit:4;stroke-dasharray:none;stroke-opacity:1" /><path
       class="fil0 str0"
       d="m 5584,3363 c -10,-27 -14,-32 -18,-57 -3,-22 -8,-6 -5,-43 4,-44 -33,-60 -17,-83 15,-24 95,-64 117,-128 18,-53 7,-85 -3,-136"
       id="path36"
       inkscape:connector-curvature="0"
       style="fill:none;stroke:#292929;stroke-width:27.7678566;stroke-linecap:round;stroke-miterlimit:4;stroke-dasharray:none;stroke-opacity:1" /><path
       class="fil0 str0"
       d="m 5530,3369 c -13,-77 27,-83 30,-92"
       id="path38"
       inkscape:connector-curvature="0"
       style="fill:none;stroke:#292929;stroke-width:27.7678566;stroke-linecap:round;stroke-miterlimit:4;stroke-dasharray:none;stroke-opacity:1" /><path
       class="fil0 str0"
       d="m 5491,3381 c -10,-72 -31,-147 -3,-217 31,-80 115,-126 43,-218 0,0 -21,-18 -23,-17"
       id="path40"
       inkscape:connector-curvature="0"
       style="fill:none;stroke:#292929;stroke-width:27.7678566;stroke-linecap:round;stroke-miterlimit:4;stroke-dasharray:none;stroke-opacity:1" /><path
       class="fil0 str0"
       d="m 5526,3096 c -18,-33 -16,-26 -34,-49 -14,-18 -28,-72 -26,-96 1,-10 1,-17 1,-21"
       id="path42"
       inkscape:connector-curvature="0"
       style="fill:none;stroke:#292929;stroke-width:27.7678566;stroke-linecap:round;stroke-miterlimit:4;stroke-dasharray:none;stroke-opacity:1" /><path
       class="fil0 str0"
       d="m 5382,3383 c -4,-53 44,-105 42,-165 -1,-46 8,-79 5,-109 -3,-26 -17,-132 -17,-133"
       id="path44"
       inkscape:connector-curvature="0"
       style="fill:none;stroke:#292929;stroke-width:27.7678566;stroke-linecap:round;stroke-miterlimit:4;stroke-dasharray:none;stroke-opacity:1" /><path
       class="fil0 str0"
       d="m 5403,3301 c 25,29 20,70 56,82"
       id="path46"
       inkscape:connector-curvature="0"
       style="fill:none;stroke:#292929;stroke-width:27.7678566;stroke-linecap:round;stroke-miterlimit:4;stroke-dasharray:none;stroke-opacity:1" /><path
       class="fil0 str0"
       d="m 5338,3376 c -3,-49 21,-66 20,-120 -1,-37 -1,-33 -5,-69 -8,-66 26,-127 11,-196 0,0 -3,-11 -3,-11"
       id="path48"
       inkscape:connector-curvature="0"
       style="fill:none;stroke:#292929;stroke-width:27.7678566;stroke-linecap:round;stroke-miterlimit:4;stroke-dasharray:none;stroke-opacity:1" /><path
       class="fil0 str0"
       d="m 5198,3330 c -9,-46 12,-146 48,-174 10,-7 17,-26 41,-40 35,-21 44,-110 18,-146"
       id="path50"
       inkscape:connector-curvature="0"
       style="fill:none;stroke:#292929;stroke-width:27.7678566;stroke-linecap:round;stroke-miterlimit:4;stroke-dasharray:none;stroke-opacity:1" /><path
       class="fil0 str0"
       d="m 5265,3377 c 18,-38 25,-46 21,-101 -3,-47 -20,-61 4,-107 1,-1 2,-4 2,-5"
       id="path52"
       inkscape:connector-curvature="0"
       style="fill:none;stroke:#292929;stroke-width:27.7678566;stroke-linecap:round;stroke-miterlimit:4;stroke-dasharray:none;stroke-opacity:1" /><path
       class="fil0 str0"
       d="m 5251,3151 c 2,-33 -5,-65 -18,-97 -28,-67 -34,-54 -8,-117 0,-1 1,-3 1,-5"
       id="path54"
       inkscape:connector-curvature="0"
       style="fill:none;stroke:#292929;stroke-width:27.7678566;stroke-linecap:round;stroke-miterlimit:4;stroke-dasharray:none;stroke-opacity:1" /><path
       class="fil0 str0"
       d="m 5129,3321 c -28,-68 -22,-110 15,-172 33,-55 46,-77 20,-139 -5,-10 -28,-65 -33,-70"
       id="path56"
       inkscape:connector-curvature="0"
       style="fill:none;stroke:#292929;stroke-width:27.7678566;stroke-linecap:round;stroke-miterlimit:4;stroke-dasharray:none;stroke-opacity:1" /><path
       class="fil0 str0"
       d="m 5170,3103 c -16,-38 -42,-59 -61,-101 -10,-20 -21,-37 -29,-45"
       id="path58"
       inkscape:connector-curvature="0"
       style="fill:none;stroke:#292929;stroke-width:27.7678566;stroke-linecap:round;stroke-miterlimit:4;stroke-dasharray:none;stroke-opacity:1" /><path
       class="fil0 str0"
       d="m 5040,2975 c 7,22 25,59 28,80 16,95 -86,132 0,199 2,2 1,1 3,2"
       id="path60"
       inkscape:connector-curvature="0"
       style="fill:none;stroke:#292929;stroke-width:27.7678566;stroke-linecap:round;stroke-miterlimit:4;stroke-dasharray:none;stroke-opacity:1" /><path
       class="fil0 str0"
       d="m 5037,3217 c -26,-26 -36,-123 -76,-126 -23,-1 -51,-34 -52,-55"
       id="path62"
       inkscape:connector-curvature="0"
       style="fill:none;stroke:#292929;stroke-width:27.7678566;stroke-linecap:round;stroke-miterlimit:4;stroke-dasharray:none;stroke-opacity:1" /><path
       class="fil0 str0"
       d="m 4997,3131 c -13,-13 -26,-12 -38,0 -23,20 -50,36 -80,38 -30,3 -32,1 -61,-15"
       id="path64"
       inkscape:connector-curvature="0"
       style="fill:none;stroke:#292929;stroke-width:27.7678566;stroke-linecap:round;stroke-miterlimit:4;stroke-dasharray:none;stroke-opacity:1" /><path
       class="fil0 str0"
       d="m 5032,3211 c -26,-8 -12,-16 -49,-14 -102,4 -23,99 -172,54 -22,-7 -14,0 -43,-14"
       id="path66"
       inkscape:connector-curvature="0"
       style="fill:none;stroke:#292929;stroke-width:27.7678566;stroke-linecap:round;stroke-miterlimit:4;stroke-dasharray:none;stroke-opacity:1" /><path
       class="fil0 str0"
       d="m 5084,3316 c -23,-22 -41,-34 -73,-31 -26,3 -33,47 -39,47"
       id="path68"
       inkscape:connector-curvature="0"
       style="fill:none;stroke:#292929;stroke-width:27.7678566;stroke-linecap:round;stroke-miterlimit:4;stroke-dasharray:none;stroke-opacity:1" /><path
       class="fil0 str0"
       d="m 5105,3390 c -62,-28 -110,-67 -181,-62 -15,2 -68,28 -81,36 -34,23 -47,34 -86,11 -9,-6 -23,-8 -29,-18"
       id="path70"
       inkscape:connector-curvature="0"
       style="fill:none;stroke:#292929;stroke-width:27.7678566;stroke-linecap:round;stroke-miterlimit:4;stroke-dasharray:none;stroke-opacity:1" /><path
       class="fil0 str0"
       d="m 4771,3289 c 51,29 49,30 72,75"
       id="path72"
       inkscape:connector-curvature="0"
       style="fill:none;stroke:#292929;stroke-width:27.7678566;stroke-linecap:round;stroke-miterlimit:4;stroke-dasharray:none;stroke-opacity:1" /><path
       class="fil0 str0"
       d="m 5117,3433 c -29,45 -46,52 -104,40 -54,-11 -39,-89 -116,-75 -32,5 -61,46 -68,76 -6,28 -23,74 -35,69 l -2,-1"
       id="path74"
       inkscape:connector-curvature="0"
       style="fill:none;stroke:#292929;stroke-width:27.7678566;stroke-linecap:round;stroke-miterlimit:4;stroke-dasharray:none;stroke-opacity:1" /><path
       class="fil0 str0"
       d="m 4908,3399 c -6,32 -15,79 -37,105 -1,2 -14,18 -16,9"
       id="path76"
       inkscape:connector-curvature="0"
       style="fill:none;stroke:#292929;stroke-width:27.7678566;stroke-linecap:round;stroke-miterlimit:4;stroke-dasharray:none;stroke-opacity:1" /><path
       class="fil0 str0"
       d="m 5143,3510 c -55,20 -40,3 -72,50 -7,10 -43,56 -56,55 -70,-2 -67,-97 -135,-32 -18,17 0,72 -51,72"
       id="path78"
       inkscape:connector-curvature="0"
       style="fill:none;stroke:#292929;stroke-width:27.7678566;stroke-linecap:round;stroke-miterlimit:4;stroke-dasharray:none;stroke-opacity:1" /><path
       class="fil0 str0"
       d="m 5042,3587 c -61,-25 -45,-46 -90,-78 -16,-12 -19,-3 -29,-4"
       id="path80"
       inkscape:connector-curvature="0"
       style="fill:none;stroke:#292929;stroke-width:27.7678566;stroke-linecap:round;stroke-miterlimit:4;stroke-dasharray:none;stroke-opacity:1" /><path
       class="fil0 str0"
       d="m 5071,3560 c 15,24 25,15 40,13 6,-1 37,-18 39,-17"
       id="path82"
       inkscape:connector-curvature="0"
       style="fill:none;stroke:#292929;stroke-width:27.7678566;stroke-linecap:round;stroke-miterlimit:4;stroke-dasharray:none;stroke-opacity:1" /><path
       class="fil0 str0"
       d="m 5140,3600 c -32,29 -24,40 -55,58 -28,16 -81,-9 -130,8 -29,9 -53,24 -75,49"
       id="path84"
       inkscape:connector-curvature="0"
       style="fill:none;stroke:#292929;stroke-width:27.7678566;stroke-linecap:round;stroke-miterlimit:4;stroke-dasharray:none;stroke-opacity:1" /><path
       class="fil0 str0"
       d="m 5048,3663 c -15,41 -10,61 -20,88 -15,40 -79,45 -85,51"
       id="path86"
       inkscape:connector-curvature="0"
       style="fill:none;stroke:#292929;stroke-width:27.7678566;stroke-linecap:round;stroke-miterlimit:4;stroke-dasharray:none;stroke-opacity:1" /><path
       class="fil0 str0"
       d="m 5171,3629 c -26,63 -44,51 -58,88 -20,52 -73,44 -28,132 l 1,2"
       id="path88"
       inkscape:connector-curvature="0"
       style="fill:none;stroke:#292929;stroke-width:27.7678566;stroke-linecap:round;stroke-miterlimit:4;stroke-dasharray:none;stroke-opacity:1" /><path
       class="fil0 str0"
       d="m 5178,3695 c -53,119 -41,151 -27,183"
       id="path90"
       inkscape:connector-curvature="0"
       style="fill:none;stroke:#292929;stroke-width:27.7678566;stroke-linecap:round;stroke-miterlimit:4;stroke-dasharray:none;stroke-opacity:1" /><path
       class="fil0 str0"
       d="m 5178,3695 c 32,106 67,45 116,112 11,15 37,100 14,99"
       id="path92"
       inkscape:connector-curvature="0"
       style="fill:none;stroke:#292929;stroke-width:27.7678566;stroke-linecap:round;stroke-miterlimit:4;stroke-dasharray:none;stroke-opacity:1" /><path
       class="fil0 str0"
       d="m 5247,3771 c 6,-49 0,-56 -18,-87 -9,-16 -42,-45 -58,-55"
       id="path94"
       inkscape:connector-curvature="0"
       style="fill:none;stroke:#292929;stroke-width:27.7678566;stroke-linecap:round;stroke-miterlimit:4;stroke-dasharray:none;stroke-opacity:1" /><path
       class="fil0 str0"
       d="m 5236,3799 c -13,22 -32,33 4,89"
       id="path96"
       inkscape:connector-curvature="0"
       style="fill:none;stroke:#292929;stroke-width:27.7678566;stroke-linecap:round;stroke-miterlimit:4;stroke-dasharray:none;stroke-opacity:1" /><path
       class="fil0 str0"
       d="m 5211,3575 c 58,49 68,62 86,132 11,42 39,88 84,99"
       id="path98"
       inkscape:connector-curvature="0"
       style="fill:none;stroke:#292929;stroke-width:27.7678566;stroke-linecap:round;stroke-miterlimit:4;stroke-dasharray:none;stroke-opacity:1" /><path
       class="fil0 str0"
       d="m 5265,3640 c -18,31 -16,23 -40,38"
       id="path100"
       inkscape:connector-curvature="0"
       style="fill:none;stroke:#292929;stroke-width:27.7678566;stroke-linecap:round;stroke-miterlimit:4;stroke-dasharray:none;stroke-opacity:1" /><path
       class="fil0 str0"
       d="m 5385,3753 c -32,-94 8,-93 -25,-174 -12,-30 -60,-24 -56,-96"
       id="path102"
       inkscape:connector-curvature="0"
       style="fill:none;stroke:#292929;stroke-width:27.7678566;stroke-linecap:round;stroke-miterlimit:4;stroke-dasharray:none;stroke-opacity:1" /><path
       class="fil0 str0"
       d="m 5327,3548 c -18,33 -16,23 -49,18 -30,-5 -37,-19 -42,-26"
       id="path104"
       inkscape:connector-curvature="0"
       style="fill:none;stroke:#292929;stroke-width:27.7678566;stroke-linecap:round;stroke-miterlimit:4;stroke-dasharray:none;stroke-opacity:1" /><path
       class="fil0 str0"
       d="m 5344,3451 c 9,23 37,81 72,81"
       id="path106"
       inkscape:connector-curvature="0"
       style="fill:none;stroke:#292929;stroke-width:27.7678566;stroke-linecap:round;stroke-miterlimit:4;stroke-dasharray:none;stroke-opacity:1" /><path
       class="fil0 str0"
       d="m 5406,3419 c -1,29 -6,41 11,66 8,11 -5,57 -4,78 0,19 -7,38 1,61"
       id="path108"
       inkscape:connector-curvature="0"
       style="fill:none;stroke:#292929;stroke-width:27.7678566;stroke-linecap:round;stroke-miterlimit:4;stroke-dasharray:none;stroke-opacity:1" /><path
       class="fil0 str0"
       d="m 5462,3471 c -5,62 20,58 20,80"
       id="path110"
       inkscape:connector-curvature="0"
       style="fill:none;stroke:#292929;stroke-width:27.7678566;stroke-linecap:round;stroke-miterlimit:4;stroke-dasharray:none;stroke-opacity:1" /><path
       class="fil0 str0"
       d="m 5540,3468 c -19,74 -36,47 -67,100 -11,18 -15,14 -22,43 -9,34 -14,44 -9,80 3,23 -13,43 -15,49"
       id="path112"
       inkscape:connector-curvature="0"
       style="fill:none;stroke:#292929;stroke-width:27.7678566;stroke-linecap:round;stroke-miterlimit:4;stroke-dasharray:none;stroke-opacity:1" /><path
       class="fil0 str0"
       d="m 5580,3519 c -2,2 -81,81 -87,82 -18,4 -22,1 -38,4"
       id="path114"
       inkscape:connector-curvature="0"
       style="fill:none;stroke:#292929;stroke-width:27.7678566;stroke-linecap:round;stroke-miterlimit:4;stroke-dasharray:none;stroke-opacity:1" /><path
       class="fil0 str0"
       d="m 5609,3561 c -34,18 -37,30 -58,58 -51,69 6,180 -101,219 -14,5 -29,14 -42,18"
       id="path116"
       inkscape:connector-curvature="0"
       style="fill:none;stroke:#292929;stroke-width:27.7678566;stroke-linecap:round;stroke-miterlimit:4;stroke-dasharray:none;stroke-opacity:1" /><path
       class="fil0 str0"
       d="m 5643,3699 c -48,42 -58,59 -69,88 -6,17 -18,90 -6,104"
       id="path118"
       inkscape:connector-curvature="0"
       style="fill:none;stroke:#292929;stroke-width:27.7678566;stroke-linecap:round;stroke-miterlimit:4;stroke-dasharray:none;stroke-opacity:1" /><path
       class="fil0 str0"
       d="m 5573,3791 c -12,32 -25,78 -60,93 -10,4 -16,10 -28,9"
       id="path120"
       inkscape:connector-curvature="0"
       style="fill:none;stroke:#292929;stroke-width:27.7678566;stroke-linecap:round;stroke-miterlimit:4;stroke-dasharray:none;stroke-opacity:1" /><path
       class="fil0 str0"
       d="m 5645,3704 c 15,53 0,49 -12,97 -11,41 -13,39 -2,83"
       id="path122"
       inkscape:connector-curvature="0"
       style="fill:none;stroke:#292929;stroke-width:27.7678566;stroke-linecap:round;stroke-miterlimit:4;stroke-dasharray:none;stroke-opacity:1" /><path
       class="fil0 str0"
       d="m 5648,3713 c 15,46 6,51 45,80 25,18 51,30 44,87"
       id="path124"
       inkscape:connector-curvature="0"
       style="fill:none;stroke:#292929;stroke-width:27.7678566;stroke-linecap:round;stroke-miterlimit:4;stroke-dasharray:none;stroke-opacity:1" /><path
       class="fil0 str0"
       d="m 5643,3699 c 61,44 55,26 113,46 45,15 21,43 75,76"
       id="path126"
       inkscape:connector-curvature="0"
       style="fill:none;stroke:#292929;stroke-width:27.7678566;stroke-linecap:round;stroke-miterlimit:4;stroke-dasharray:none;stroke-opacity:1" /><path
       class="fil0 str0"
       d="m 5643,3085 c -42,-10 -29,-48 -29,-61 0,-22 -18,-80 -16,-96"
       id="path128"
       inkscape:connector-curvature="0"
       style="fill:none;stroke:#292929;stroke-width:27.7678566;stroke-linecap:round;stroke-miterlimit:4;stroke-dasharray:none;stroke-opacity:1" /></g><g
     transform="matrix(117.19573,0,0,117.19573,-35145.407,-357466.91)"
     style="font-style:normal;font-variant:normal;font-weight:600;font-stretch:normal;font-size:99.99661255px;line-height:150%;font-family:Signika;-inkscape-font-specification:'Signika, Semi-Bold';text-align:start;letter-spacing:-6.45399714px;word-spacing:0px;writing-mode:lr-tb;text-anchor:start;fill:#292929;fill-opacity:1;stroke:none;stroke-width:1px;stroke-linecap:butt;stroke-linejoin:miter;stroke-opacity:1"
     id="flowRoot4203"><path
       d="m 519.73943,3468.5121 0.59998,0.5 0,68.0977 q -2.7999,0.5 -6.39978,0.5 -3.59988,0 -6.39979,-0.4 l -21.29927,-41.8986 q -3.1999,-6.6998 -6.29979,-13.8995 l -0.39999,0.1 q 0.89997,15.4995 0.89997,24.4992 l 0,31.1989 q -2.39992,0.4 -4.99983,0.4 -2.59991,0 -4.89983,-0.4 l 0,-68.1977 q 2.7999,-0.5 6.29978,-0.5 3.59988,0 6.39979,0.4 l 21.09928,41.8986 q 1.39996,2.9999 3.69988,8.1997 2.29992,5.0998 2.8999,6.2998 l 0.39999,-0.1 q -0.79998,-12.7996 -0.79998,-25.1991 l 0,-24.8992 q 0,-3.5999 1.19996,-5.0998 1.29996,-1.5 4.49985,-1.5 l 3.49988,0 z"
       style="font-style:normal;font-variant:normal;font-weight:normal;font-stretch:normal;font-size:99.99661255px;line-height:150%;font-family:Signika;-inkscape-font-specification:'Signika, Normal';text-align:start;writing-mode:lr-tb;text-anchor:start;fill:#292929;fill-opacity:1"
       id="path4231" /><path
       d="m 567.35235,3515.8105 -29.399,0 q 0.29999,6.8998 2.8999,10.5997 2.69991,3.6998 8.99969,3.6998 2.9999,0 6.39979,-0.8999 3.49988,-0.9 7.19975,-2.8999 2.49992,2.2999 3.29989,6.5997 -7.99973,5.5999 -18.79936,5.5999 -5.69981,0 -9.59968,-2 -3.89987,-1.9999 -6.39978,-5.4998 -2.39992,-3.4999 -3.49988,-8.2997 -1.09997,-4.8998 -1.09997,-10.4997 0,-5.4998 1.39996,-10.1996 1.39995,-4.7998 3.99986,-8.1997 2.59991,-3.3999 6.39978,-5.2999 3.89987,-1.9999 8.69971,-1.9999 4.79984,0 8.49971,1.6 3.79987,1.5999 6.39979,4.4998 2.59991,2.7999 3.89986,6.7998 1.39996,3.8998 1.39996,8.4997 0,1.9999 -0.2,3.9999 -0.1,1.8999 -0.49998,3.8998 z M 548.153,3494.2113 q -9.49968,0 -10.19965,14.0995 l 20.19931,0 0,-1.3 q 0,-5.6998 -2.49991,-9.1997 -2.39992,-3.5998 -7.49975,-3.5998 z"
       style="font-style:normal;font-variant:normal;font-weight:normal;font-stretch:normal;font-size:99.99661255px;line-height:150%;font-family:Signika;-inkscape-font-specification:'Signika, Normal';text-align:start;writing-mode:lr-tb;text-anchor:start;fill:#292929;fill-opacity:1"
       id="path4233" /><path
       d="m 573.89791,3521.7103 0,-23.2992 q 0,-5.9998 -1.69994,-8.9997 2.49991,-2.1999 6.49978,-2.1999 5.49981,0 5.49981,6.4998 l 0,25.4991 q 0,5.1998 1.29996,7.3998 1.29995,2.1999 4.59984,2.1999 3.29989,0 6.69977,-1.6 3.39989,-1.6999 6.0998,-4.4998 l 0,-34.8988 q 2.7999,-0.4 5.09983,-0.4 2.29992,0 5.29982,0.4 l 0,35.3988 q 0,6.9997 2.7999,9.4997 -1.09996,3.5998 -3.89987,5.1998 -6.29978,-1.1 -8.39971,-7.1998 -7.79974,7.3998 -16.69944,7.3998 -6.59977,0 -9.89966,-4.4999 -3.29989,-4.4998 -3.29989,-11.8996 z"
       style="font-style:normal;font-variant:normal;font-weight:normal;font-stretch:normal;font-size:99.99661255px;line-height:150%;font-family:Signika;-inkscape-font-specification:'Signika, Normal';text-align:start;writing-mode:lr-tb;text-anchor:start;fill:#292929;fill-opacity:1"
       id="path4235" /><path
       d="m 619.72964,3492.6113 q 0.99997,-3.6999 3.79987,-5.4998 6.89977,1.4999 9.0997,8.8997 3.99986,-8.8997 13.09955,-8.8997 2.39992,0 5.29982,0.6 0,5.7998 -2.49991,9.7996 -0.89997,-0.2999 -4.09986,-0.4999 -6.79977,0 -10.69964,7.5997 l 0,32.5989 q -1.89994,0.4 -5.19982,0.4 -3.1999,0 -5.09983,-0.4 l 0,-34.2988 q 0,-6.7998 -3.69988,-10.2997 z"
       style="font-style:normal;font-variant:normal;font-weight:normal;font-stretch:normal;font-size:99.99661255px;line-height:150%;font-family:Signika;-inkscape-font-specification:'Signika, Normal';text-align:start;writing-mode:lr-tb;text-anchor:start;fill:#292929;fill-opacity:1"
       id="path4237" /><path
       d="m 683.5389,3533.0099 q -5.49982,5.4999 -14.49951,5.4999 -5.19983,0 -9.19969,-1.8 -3.99987,-1.8999 -6.79977,-5.2998 -2.69991,-3.4999 -4.19986,-8.1997 -1.39995,-4.7999 -1.39995,-10.6997 0,-5.7998 1.39995,-10.5996 1.49995,-4.7998 4.19986,-8.1997 2.7999,-3.4999 6.79977,-5.2998 3.99986,-1.9 9.19969,-1.9 5.19982,0 9.19969,1.9 3.99986,1.7999 6.69977,5.2998 2.7999,3.3999 4.19986,8.1997 1.49995,4.7998 1.49995,10.5996 0,13.3996 -7.09976,20.4993 z m -14.49951,-38.5987 q -10.89963,0 -10.89963,18.0994 0,18.0994 10.89963,18.0994 10.99962,0 10.99962,-18.0994 0,-18.0994 -10.99962,-18.0994 z"
       style="font-style:normal;font-variant:normal;font-weight:normal;font-stretch:normal;font-size:99.99661255px;line-height:150%;font-family:Signika;-inkscape-font-specification:'Signika, Normal';text-align:start;writing-mode:lr-tb;text-anchor:start;fill:#292929;fill-opacity:1"
       id="path4239" /><path
       d="m 718.53661,3527.7101 15.89946,-58.798 q 1.89994,-0.4 4.69984,-0.4 2.79991,0 4.69984,0.6 l 0.49999,0.8 -19.79933,67.3977 q -5.19983,0.4 -8.19972,0.4 -2.9999,0 -4.79984,-1 -1.69994,-1.0999 -2.59991,-4.1998 l -18.39938,-62.6979 q 3.59988,-1.6 6.59978,-1.6 4.29985,0 5.7998,5.1999 l 10.29965,36.0987 q 2.39992,8.4998 4.39985,17.1995 0.29999,0.9999 0.89997,0.9999 z"
       style="font-style:normal;font-variant:normal;font-weight:normal;font-stretch:normal;font-size:99.99661255px;line-height:150%;font-family:Signika;-inkscape-font-specification:'Signika, Normal';text-align:start;writing-mode:lr-tb;text-anchor:start;fill:#292929;fill-opacity:1"
       id="path4241" /><path
       d="m 759.00291,3496.4112 0,40.7986 c -1.26663,0.2667 -2.9999,0.4 -5.19982,0.4 -2.13327,0 -3.83321,-0.1333 -5.09983,-0.4 l 0,-36.5988 c 0,-1.8666 -0.33332,-3.1999 -0.99997,-3.9998 -0.66664,-0.8 -1.79993,-1.2 -3.39988,-1.2 l -1.09996,0 c -0.33333,-1.4666 -0.49999,-2.6999 -0.49999,-3.6999 0,-0.9999 0.16666,-2.2665 0.49999,-3.7998 2.19992,-0.2667 4.29985,-0.4 6.29978,-0.4 l 1.39995,0 c 2.53325,0 4.49985,0.8 5.8998,2.3999 1.46662,1.5999 2.19993,3.7665 2.19993,6.4998 z"
       style="font-style:normal;font-variant:normal;font-weight:normal;font-stretch:normal;font-size:99.99661255px;line-height:150%;font-family:Signika;-inkscape-font-specification:'Signika, Normal';text-align:start;writing-mode:lr-tb;text-anchor:start;fill:#292929;fill-opacity:1"
       id="path4243"
       inkscape:connector-curvature="0"
       sodipodi:nodetypes="scscscscscsscs" /><path
       d="m 806.29552,3532.61 q -1.19996,3.5998 -3.89987,5.2998 -5.8998,-1.1 -7.99973,-6.1998 -7.09976,6.7998 -14.5995,6.7998 -3.79987,0 -6.69977,-1.2 -2.79991,-1.2 -4.79984,-3.1999 -1.89994,-2.0999 -2.8999,-4.6998 -0.89997,-2.6999 -0.89997,-5.5998 0,-8.1998 5.19982,-12.3996 5.29982,-4.1999 13.99953,-4.1999 2.49991,0 4.89983,0.2 2.39992,0.1 4.69984,0.5 l 0,-3.8999 q 0,-8.8997 -8.19972,-8.8997 -5.69981,0 -15.69947,3.7999 -2.8999,-2.4999 -2.9999,-7.4997 10.19966,-4.5999 20.6993,-4.5999 7.79974,0 12.09959,4.1999 4.29986,4.0998 4.29986,12.4995 l 0,20.4993 q 0,6.1998 2.7999,8.5998 z m -24.79916,-2.3 q 6.39978,0 11.7996,-5.9998 l 0,-9.4996 q -1.99993,-0.2 -4.19986,-0.3 -2.19992,-0.1 -4.59984,-0.1 -4.59984,0 -7.19976,2.2999 -2.49991,2.1999 -2.49991,5.8998 0,3.5999 1.79994,5.6998 1.79994,1.9999 4.89983,1.9999 z"
       style="font-style:normal;font-variant:normal;font-weight:normal;font-stretch:normal;font-size:99.99661255px;line-height:150%;font-family:Signika;-inkscape-font-specification:'Signika, Normal';text-align:start;writing-mode:lr-tb;text-anchor:start;fill:#292929;fill-opacity:1"
       id="path4245" /><path
       d="m 807.62251,3533.5099 q 0.1,-1.6999 1.09996,-3.7998 0.99997,-2.2 2.29992,-3.3999 7.99973,4.3998 12.99956,4.3998 5.09983,0 7.49975,-1.6999 2.49991,-1.7 2.49991,-4.4999 0,-4.3998 -6.29978,-6.7997 l -5.59981,-2.1 q -12.69957,-4.7998 -12.69957,-14.2995 0,-6.8998 4.89983,-10.7996 4.99983,-3.9999 12.99956,-3.9999 8.09973,0 16.09946,3.5999 0,1.9999 -0.89997,4.1999 -0.79998,2.1999 -2.19993,3.3998 -7.09976,-3.2999 -13.29955,-3.2999 -3.29989,0 -5.29982,1.6 -1.89993,1.5999 -1.89993,3.9999 0,2.3999 1.39995,3.6998 1.49995,1.3 4.79984,2.5999 l 5.99979,2.3 q 12.69957,4.8998 12.69957,14.9995 0,6.8997 -5.29982,10.8996 -5.29982,3.9999 -14.39951,3.9999 -9.09969,0 -17.39941,-4.9999 z"
       style="font-style:normal;font-variant:normal;font-weight:normal;font-stretch:normal;font-size:99.99661255px;line-height:150%;font-family:Signika;-inkscape-font-specification:'Signika, Normal';text-align:start;writing-mode:lr-tb;text-anchor:start;fill:#292929;fill-opacity:1"
       id="path4247" /></g><rect
     style="clip-rule:evenodd;opacity:1;fill:#292929;fill-opacity:1;fill-rule:nonzero;stroke:#292929;stroke-width:438.88470459;stroke-linecap:round;stroke-linejoin:round;stroke-miterlimit:4;stroke-dasharray:none;stroke-opacity:1;image-rendering:optimizeQuality;shape-rendering:geometricPrecision;text-rendering:geometricPrecision"
     id="rect4213-8"
     width="3064.4382"
     height="698.03516"
     x="51226.359"
     y="49249.59" /></svg>